<svg id="_x31_-outline-expand" enable-background="new 0 0 64 64" height="512" viewBox="0 0 64 64" width="512" xmlns="http://www.w3.org/2000/svg"><path d="m39 61h-26c-2.209 0-4-1.791-4-4v-50c0-2.209 1.791-4 4-4h26c2.209 0 4 1.791 4 4v50c0 2.209-1.791 4-4 4" fill="#caeae9"/><path d="m43 49h19v-24h-13v-11c-3.313 0-6 2.687-6 6z" fill="#f2daae"/><path d="m9 28c0 1.657-1.343 3-3 3s-3-1.343-3-3 1.343-3 3-3 3 1.343 3 3" fill="#f2daae"/><path d="m9 34c0 1.657-1.343 3-3 3s-3-1.343-3-3 1.343-3 3-3 3 1.343 3 3" fill="#f2daae"/><path d="m9 40c0 1.657-1.343 3-3 3s-3-1.343-3-3 1.343-3 3-3 3 1.343 3 3" fill="#f2daae"/><path d="m9 46c0 1.657-1.343 3-3 3s-3-1.343-3-3 1.343-3 3-3 3 1.343 3 3" fill="#f2daae"/><path d="m43 9h-34v-2c0-2.209 1.791-4 4-4h26c2.209 0 4 1.791 4 4z" fill="#62c4c3"/><path d="m9 55h34v2c0 2.209-1.791 4-4 4h-26c-2.209 0-4-1.791-4-4z" fill="#62c4c3"/><path d="m13 15h10v8h-10z" fill="#efbc2e"/><path d="m29 28h10v8h-10z" fill="#efbc2e"/><path d="m13 41h10v8h-10z" fill="#efbc2e"/><g fill="#3a4249"><path d="m49 26h13v-2h-12v-10c0-.553-.447-1-1-1-1.958 0-3.729.811-5 2.11v-8.11c0-2.757-2.243-5-5-5h-26c-2.757 0-5 2.243-5 5v17.557c-.591-.345-1.269-.557-2-.557-2.206 0-4 1.794-4 4 0 1.2.542 2.267 1.382 3-.84.733-1.382 1.8-1.382 3s.542 2.267 1.382 3c-.84.733-1.382 1.8-1.382 3s.542 2.267 1.382 3c-.84.733-1.382 1.8-1.382 3 0 2.206 1.794 4 4 4 .731 0 1.409-.212 2-.557v7.557c0 2.757 2.243 5 5 5h26c2.757 0 5-2.243 5-5v-7h18v-2h-18v-28c0-2.415 1.721-4.435 4-4.899v9.899c0 .553.447 1 1 1m-36-22h26c1.654 0 3 1.346 3 3v1h-32v-1c0-1.654 1.346-3 3-3m-9 24c0-1.103.897-2 2-2s2 .897 2 2-.897 2-2 2-2-.897-2-2m0 6c0-1.103.897-2 2-2s2 .897 2 2-.897 2-2 2-2-.897-2-2m0 6c0-1.103.897-2 2-2s2 .897 2 2-.897 2-2 2-2-.897-2-2m2 8c-1.103 0-2-.897-2-2s.897-2 2-2 2 .897 2 2-.897 2-2 2m33 12h-26c-1.654 0-3-1.346-3-3v-1h32v1c0 1.654-1.346 3-3 3m3-6h-32v-44h32v10z"/><path d="m13 24h10c.553 0 1-.448 1-1v-8c0-.553-.447-1-1-1h-10c-.553 0-1 .447-1 1v8c0 .552.447 1 1 1m1-8h8v6h-8z"/><path d="m39 27h-10c-.553 0-1 .447-1 1v8c0 .552.447 1 1 1h10c.553 0 1-.448 1-1v-8c0-.553-.447-1-1-1m-1 8h-8v-6h8z"/><path d="m26 14h14v2h-14z"/><path d="m26 18h14v2h-14z"/><path d="m26 22h10v2h-10z"/><path d="m23 40h-10c-.553 0-1 .447-1 1v8c0 .552.447 1 1 1h10c.553 0 1-.448 1-1v-8c0-.553-.447-1-1-1m-1 8h-8v-6h8z"/><path d="m26 40h14v2h-14z"/><path d="m26 44h14v2h-14z"/><path d="m26 48h2v2h-2z"/><path d="m12 27h14v2h-14z"/><path d="m12 31h14v2h-14z"/><path d="m12 35h14v2h-14z"/><path d="m38 22h2v2h-2z"/><path d="m30 48h2v2h-2z"/><path d="m34 48h2v2h-2z"/><path d="m38 48h2v2h-2z"/></g></svg>