<svg id="Capa_1" enable-background="new 0 0 512.028 512.028" height="512" viewBox="0 0 512.028 512.028" width="512" xmlns="http://www.w3.org/2000/svg"><g><g><path d="m437.316 47.248h28.47v32.164h-28.47z" fill="#7da2b0" transform="matrix(.707 .707 -.707 .707 177.037 -300.746)"/><circle cx="358.961" cy="155.921" fill="#23f1a8" r="116.408"/><path d="m441.275 238.235c-45.462 45.462-119.167 45.462-164.628 0-3.137-3.137-6.055-6.412-8.753-9.797 45.702 36.489 112.501 33.564 154.825-8.76s45.249-109.123 8.76-154.825c3.384 2.698 6.659 5.616 9.797 8.753 45.461 45.462 45.461 119.167-.001 164.629z" fill="#27e19d"/><circle cx="358.961" cy="155.921" fill="#eff5f6" r="85.017"/><path d="m419.08 216.04c-33.2 33.2-87.038 33.2-120.238 0-12.879-12.879-20.767-28.868-23.644-45.558 3.948 7.751 9.158 15.021 15.646 21.509 33.2 33.2 87.024 33.2 120.224 0 20.328-20.328 28.216-48.386 23.651-74.701 16.298 31.937 11.08 72.03-15.639 98.75z" fill="#cbe5e7"/><g><path d="m482.401 76.849-44.368-44.369c-3.792-3.792-3.792-9.939 0-13.73l5.553-5.553c3.792-3.792 9.939-3.792 13.73 0l44.368 44.368c3.792 3.792 3.792 9.939 0 13.73l-5.553 5.553c-3.791 3.792-9.938 3.792-13.73.001z" fill="#23f1a8"/><path d="m501.682 71.293-5.554 5.554c-3.79 3.79-9.934 3.796-13.73 0l-16.024-16.024c3.79 3.79 9.941 3.79 13.73 0l5.554-5.554c3.79-3.79 3.79-9.941 0-13.73l16.023 16.024c3.798 3.796 3.791 9.94.001 13.73z" fill="#27e19d"/></g></g><g><g><g><g><path d="m310.465 344.983 74.408 75.115-82.839 81.576-45.931-45.985c-26.836-4.551-51.535-17.308-70.592-36.462l-111.796-112.364c-8.133-8.007-8.736-21.054-.898-29.341 8.229-8.7 22.068-8.883 30.533-.549l-16.121-15.872c-8.283-8.155-8.284-21.378-.002-29.535 8.283-8.156 21.712-8.157 29.996-.002l-7.69-7.571c-8.133-8.007-8.736-21.053-.898-29.341 8.229-8.7 22.068-8.884 30.533-.55l-7.669-7.551c-8.133-8.007-8.736-21.053-.898-29.34 8.229-8.7 22.068-8.884 30.533-.55l124.184 122.262z" fill="#fdb0a0"/><g fill="#f9a08f"><path d="m384.877 420.094-18.515 18.233-74.273-74.972-25.146-66.059-124.187-122.264c-4.806-4.728-11.34-6.709-17.593-5.952.447-4.301 2.233-8.476 5.437-11.864 8.223-8.709 22.068-8.884 30.534-.553l124.187 122.264 25.146 66.059z"/><path d="m288.407 287.034-78.166 79.798c-13.185 13.466-28.564 24.107-45.447 31.573l-91.079-91.545c-8.136-8-8.738-21.049-.893-29.34 8.223-8.699 22.068-8.884 30.525-.544l-16.117-15.874c-8.282-8.156-8.282-21.379 0-29.535 4.146-4.078 9.563-6.117 15-6.117 5.418 0 10.855 2.039 14.991 6.117l-7.689-7.573c-8.126-8.01-8.738-21.049-.893-29.34 8.223-8.699 22.068-8.884 30.535-.553l-7.67-7.544c-8.136-8.01-8.738-21.059-.903-29.34 8.233-8.699 22.068-8.884 30.535-.553l124.184 122.263z"/><path d="m96.56 329.824c-8.128-8.003-8.553-21.338-.719-29.631 8.234-8.705 22.069-8.881 30.536-.545l-16.123-15.874c-8.28-8.152-8.281-21.388-.002-29.541 4.139-4.076 9.57-6.11 15.001-6.111 5.43 0 10.861 2.033 15.001 6.109l-7.692-7.573c-8.128-8.003-8.735-21.046-.901-29.339 8.225-8.696 22.069-8.881 30.536-.545l-7.665-7.547c-8.137-8.011-8.744-21.055-.901-29.339 8.234-8.705 22.06-8.89 30.527-.554l-23.023-22.667c-8.467-8.336-22.301-8.16-30.536.545-7.834 8.293-7.228 21.336.901 29.339l7.665 7.547c-8.458-8.327-22.301-8.142-30.527.554-7.843 8.284-7.237 21.327.901 29.339l7.692 7.573c-4.14-4.076-9.579-6.118-15.01-6.118s-10.852 2.043-14.991 6.119c-8.279 8.153-8.287 21.38.002 29.54l16.115 15.865c-8.458-8.327-22.292-8.151-30.527.554-7.843 8.284-7.236 21.328.901 29.339z"/></g></g><g><path d="m264.324 272.793-50.477-49.635c-10.934-10.739-9.617-28.566 2.851-37.622 10.135-7.361 24.315-5.96 33.221 2.808l51.445 50.649 23.605 23.24c35.236 34.691 35.239 90.939.007 125.634l-19.853 19.55-25.114-24.725c-28.082-27.647-35.34-69.756-18.095-104.978z" fill="#ffcec0"/><path d="m324.973 262.228-75.051-73.885c-8.913-8.767-23.088-10.165-33.224-2.806-12.466 9.058-13.787 26.884-2.854 37.622l50.477 49.632-2.408 4.922c-7.117 14.534-10.058 30.243-9.078 45.632l36.995-37.764c6.317-6.449 16.823-6.244 22.779.54.072.082.136.156.192.223 28.149 33.434 27.575 82.406-1.721 115.207l13.893-13.68c35.233-34.7 35.233-90.944 0-125.643z" fill="#fdb0a0"/><path d="m213.848 223.153 23.611 23.228c-10.452-10.781-8.984-28.216 3.301-37.158 10.14-7.355 24.312-5.953 33.224 2.821l-24.065-23.693c-8.912-8.774-23.085-10.176-33.224-2.821-12.463 9.065-13.788 26.885-2.847 37.623z" fill="#ffcec0"/></g></g><g><g><g><g><path d="m47.113 307.079-36.424 36.424 81.574 81.574 34.602-35.366c26.425-4.553 50.744-17.312 69.508-36.467l110.075-112.375c8.008-8.008 8.601-21.055.883-29.342-8.103-8.7-21.73-8.883-30.065-.548l15.873-15.873c8.156-8.156 8.156-21.38 0-29.536-8.156-8.156-21.38-8.156-29.536 0l7.572-7.572c8.008-8.008 8.601-21.055.883-29.342-8.103-8.7-21.73-8.883-30.065-.548l7.551-7.551c8.008-8.008 8.601-21.054.883-29.341-8.103-8.7-21.73-8.883-30.065-.548l-44.924 44.924c-.992-6.159-4.282-11.985-9.788-16.046-9.98-7.361-23.943-5.959-32.711 2.809l-73.896 73.895c-30.105 30.105-34.069 76.431-11.93 110.829z" fill="#ffcec0"/></g></g></g><g><g><g><path d="m306.447 240.868-110.07 112.381c-18.767 19.156-43.088 31.913-69.516 36.467l-34.601 35.357-22.923-22.923 34.601-35.368c26.428-4.553 50.749-17.311 69.506-36.467l110.08-112.371c3.592-3.592 5.68-8.204 6.204-12.942 6.321-.709 12.893 1.466 17.602 6.524 7.719 8.293 7.127 21.332-.883 29.342z" fill="#fdb0a0"/></g></g></g></g></g><g><path d="m349.862 159.265h-7.744c4.782-4.957 9.337-10.528 11.363-15.429 2.827-6.842 2.168-14.437-1.765-20.316-3.668-5.486-9.623-8.632-16.336-8.632-11.109 0-20.147 9.039-20.147 20.148 0 4.142 3.357 7.5 7.5 7.5s7.5-3.358 7.5-7.5c0-2.838 2.31-5.148 5.147-5.148 1.691 0 2.993.663 3.867 1.971 1.126 1.683 1.268 4.077.37 6.248-2.337 5.656-14.026 16.743-21.578 22.809-2.482 1.992-3.438 5.334-2.382 8.337s3.892 5.013 7.075 5.013h27.129c4.143 0 7.5-3.358 7.5-7.5s-3.357-7.501-7.499-7.501z"/><path d="m361.279 135.593v17.967c0 11.417 9.288 20.705 20.705 20.705s20.705-9.288 20.705-20.705v-17.967c0-11.417-9.288-20.705-20.705-20.705s-20.705 9.288-20.705 20.705zm15 0c0-3.146 2.56-5.705 5.705-5.705s5.705 2.559 5.705 5.705v17.967c0 3.146-2.56 5.705-5.705 5.705s-5.705-2.559-5.705-5.705z"/><path d="m389.688 181.953h-15.408c-4.143 0-7.5 3.358-7.5 7.5s3.357 7.5 7.5 7.5h15.408c4.143 0 7.5-3.358 7.5-7.5s-3.358-7.5-7.5-7.5z"/><path d="m255.914 86.104c-5.306-5.697-12.508-8.911-20.279-9.049-7.778-.119-15.082 2.813-20.578 8.31l-36.833 36.833c-2.118-3.333-4.856-6.278-8.124-8.688-12.77-9.419-31.028-7.897-42.466 3.542l-32.334 32.335c-31.337-4.961-61.96 5.476-80.303 27.506-14.828 17.807-18.893 39.85-11.154 60.477 3.126 8.332 9.43 19.384 22.105 30.461 1.228 13.345 5.212 26.361 11.727 38.079l-32.29 32.29c-2.929 2.929-2.929 7.678 0 10.606 1.464 1.465 3.384 2.197 5.303 2.197s3.839-.732 5.303-2.197l36.424-36.424c2.496-2.496 2.914-6.394 1.003-9.362-4.579-7.115-7.901-14.766-10.014-22.656 17.924 10.656 43.388 20.313 79.536 26.317l-2.45 1.964c-3.232 2.591-3.752 7.311-1.161 10.543 1.481 1.848 3.659 2.81 5.857 2.81 1.646 0 3.302-.539 4.686-1.648l16.485-13.214c1.552-1.244 2.546-3.054 2.764-5.031s-.359-3.96-1.603-5.512l-13.215-16.485c-2.592-3.232-7.311-3.751-10.543-1.161-3.232 2.591-3.752 7.311-1.161 10.543l1.777 2.216c-30.836-5.214-55.941-13.608-74.621-24.986-3.253-1.981-6.288-4.058-9.118-6.212-.332-21.515 7.768-43.013 23.708-58.953l73.896-73.896c6.236-6.236 16.106-7.13 22.957-2.076 2.705 1.995 4.726 4.676 5.899 7.744l-56.769 56.769c-5.879 5.879-11.313 12.291-16.148 19.056-2.409 3.37-1.629 8.054 1.74 10.463 1.322.945 2.845 1.399 4.355 1.399 2.339 0 4.644-1.091 6.108-3.139 4.357-6.096 9.253-11.874 14.552-17.172l104.73-104.73c2.592-2.592 6.025-3.999 9.705-3.918 3.664.065 7.062 1.583 9.568 4.274 4.847 5.205 4.534 13.695-.698 18.927l-90.546 90.544c-2.929 2.929-2.929 7.678 0 10.606 1.464 1.464 3.384 2.197 5.303 2.197s3.839-.732 5.303-2.197c0 0 82.69-82.69 82.995-82.995l.022-.022c2.589-2.577 6.017-3.973 9.682-3.896 3.664.065 7.063 1.583 9.569 4.274 4.847 5.205 4.534 13.695-.697 18.927l-82.642 82.641c-2.929 2.929-2.929 7.678 0 10.606 1.464 1.465 3.384 2.197 5.303 2.197s3.839-.732 5.303-2.197c0 0 74.719-74.719 75.068-75.068l.022-.022c5.222-5.197 13.696-5.189 18.908.022 2.527 2.528 3.92 5.889 3.92 9.464s-1.393 6.937-3.921 9.465l-75.068 75.069c-2.929 2.929-2.929 7.678 0 10.606 1.464 1.464 3.384 2.197 5.303 2.197s3.839-.732 5.303-2.197c0 0 58.842-58.842 59.196-59.196 2.592-2.592 6.04-3.974 9.704-3.918 3.663.065 7.062 1.583 9.568 4.274 4.847 5.205 4.534 13.695-.752 18.982l-74.444 75.999c-2.898 2.959-2.849 7.708.11 10.606 2.958 2.898 7.708 2.849 10.606-.11l7.868-8.032c-.304 8.416.46 16.874 2.317 25.125.785 3.487 3.88 5.854 7.31 5.854.545 0 1.1-.06 1.654-.185 4.041-.91 6.579-4.923 5.67-8.964-2.97-13.193-2.659-27.008.874-40.028l41.93-42.806 14.724 14.496c15.599 15.357 24.189 35.767 24.19 57.471.001 16.646-5.067 32.522-14.459 45.951-25.061 1.762-53.671 1.701-80.907.486l2.445-1.96c3.232-2.591 3.752-7.311 1.161-10.543s-7.312-3.752-10.543-1.161l-16.485 13.214c-1.552 1.244-2.546 3.054-2.764 5.031s.359 3.96 1.603 5.512l13.215 16.485c1.481 1.848 3.659 2.81 5.857 2.81 1.646 0 3.302-.54 4.686-1.648 3.232-2.591 3.752-7.311 1.161-10.543l-1.799-2.244c12.448.576 26.549.998 41.175.998 8.9 0 17.991-.157 27.017-.529l-15.4 15.165c-2.951 2.906-2.987 7.655-.081 10.606 1.468 1.491 3.405 2.238 5.344 2.238 1.9 0 3.802-.718 5.263-2.156l19.853-19.55c2.497-2.458 4.836-5.03 7.025-7.697.857-.075 1.707-.157 2.558-.238l39.724 40.101c1.467 1.48 3.397 2.222 5.328 2.222 1.907 0 3.816-.723 5.278-2.172 2.942-2.915 2.965-7.664.05-10.606l-31.557-31.856c21.716-3.382 39.873-9.043 49.49-18.147 5.426-5.136 8.294-11.423 8.294-18.183 0-35.427-47.784-45.095-60.978-47.089-1.951-7.052-4.713-13.843-8.24-20.264 3.999.386 7.993.589 11.971.589 32.466-.001 63.813-12.752 87.395-36.333 43.069-43.069 47.74-110.217 14.018-158.512l9.687-9.687 6.816 6.816c3.25 3.25 7.572 5.04 12.168 5.04 4.598 0 8.919-1.79 12.169-5.041l5.552-5.552c3.251-3.25 5.041-7.572 5.041-12.169 0-4.596-1.79-8.918-5.04-12.168l-9.768-9.768c-2.929-2.929-7.678-2.929-10.606 0-2.93 2.929-2.93 7.677-.001 10.606l9.768 9.768c.535.535.647 1.145.647 1.562s-.112 1.027-.647 1.562l-5.553 5.553c-.534.534-1.144.646-1.562.646-.417 0-1.027-.112-1.562-.647l-44.369-44.369c-.534-.535-.646-1.144-.646-1.562 0-.417.112-1.027.646-1.562l5.554-5.553c.534-.534 1.144-.646 1.562-.646.417 0 1.027.112 1.562.647l9.196 9.196c2.93 2.929 7.678 2.929 10.607 0s2.929-7.678 0-10.606l-9.197-9.197c-3.25-3.25-7.572-5.04-12.168-5.04-4.598 0-8.919 1.79-12.168 5.04l-5.554 5.553c-3.25 3.25-5.04 7.572-5.04 12.168 0 4.597 1.79 8.918 5.04 12.168l6.815 6.815-9.687 9.688c-48.296-33.723-115.444-29.051-158.513 14.018-5.612 5.618-11.017 11.291-15.428 17.803zm-202.175 104.843c-15.036 15.036-24.691 34.759-27.397 55.778-3.712-4.683-6.563-9.582-8.455-14.625-5.792-15.438-2.645-32.062 8.636-45.61 12.763-15.329 33.069-23.732 54.981-23.309zm347.69 155.686c0 1.664-.374 4.23-3.605 7.29-8.092 7.659-26.427 12.534-49.774 15.335 7.089-13.501 10.849-28.569 10.848-44.211 0-3.255-.164-6.485-.486-9.681 14.254 2.935 43.017 11.333 43.017 31.267zm34.541-113.703c-26.482 26.482-64.112 37.419-100.701 29.301-1.604-1.833-3.283-3.615-5.039-5.344l-15.07-14.837c.78-1.143 1.47-2.331 2.071-3.554 12.916 6.513 27.3 9.935 41.816 9.935 3.279 0 6.567-.174 9.844-.526 20.896-2.244 40.602-11.678 55.489-26.566 17.474-17.474 27.098-40.707 27.098-65.419s-9.624-47.945-27.098-65.419c-12.695-12.695-28.677-21.364-46.216-25.07-4.052-.86-8.032 1.734-8.889 5.788-.856 4.053 1.734 8.032 5.787 8.888 14.689 3.104 28.075 10.366 38.71 21 14.642 14.641 22.705 34.107 22.705 54.813s-8.063 40.171-22.705 54.813c-25.086 25.085-63.246 29.964-93.662 12.277-.532-6.052-2.948-11.929-7.293-16.594-3.517-3.775-7.864-6.459-12.658-7.881 4.271-5.096 6.596-11.467 6.596-18.196 0-7.582-2.952-14.71-8.314-20.071-4.272-4.273-9.582-6.896-15.125-7.87 1.876-5.374 2.14-11.198.789-16.657 3.504-13.046 10.429-25.018 20.044-34.632 10.486-10.487 23.676-17.706 38.143-20.876 4.046-.887 6.607-4.885 5.721-8.932-.887-4.045-4.878-6.608-8.932-5.721-17.273 3.786-33.021 12.403-45.539 24.922-8.513 8.513-15.257 18.584-19.882 29.58-3.539-2.638-7.607-4.408-11.961-5.165 1.241-3.571 1.767-7.34 1.587-11.068 4.971-9.124 11.242-17.514 18.666-24.938 42.461-42.463 111.556-42.464 154.019 0 42.462 42.463 42.462 111.556-.001 154.019zm15.239-159.733c-1.492-1.662-3.033-3.295-4.631-4.893s-3.231-3.139-4.893-4.631l8.467-8.467 9.524 9.524z"/><path d="m261.409 450.389c-1.101-1.102-2.518-1.834-4.053-2.094-25.455-4.316-48.46-16.197-66.529-34.357l-27.74-27.881c14.29-6.765 27.343-16.028 38.643-27.564l10.49-10.708c2.898-2.959 2.85-7.708-.109-10.606s-7.708-2.849-10.606.109l-10.49 10.709c-17.771 18.143-40.395 30.012-65.423 34.324-1.554.268-2.984 1.019-4.087 2.146l-34.602 35.366c-2.897 2.961-2.845 7.709.116 10.606 1.459 1.428 3.353 2.139 5.245 2.139 1.947 0 3.892-.753 5.361-2.255l32.932-33.659c5.938-1.132 11.741-2.667 17.402-4.546l32.236 32.4c19.718 19.819 44.664 32.974 72.269 38.141l44.265 44.316c1.465 1.466 3.386 2.2 5.307 2.2 1.918 0 3.836-.731 5.3-2.194 2.931-2.927 2.934-7.676.007-10.606z"/></g></g></g></svg>