<svg height="512" viewBox="0 0 512 512" width="512" xmlns="http://www.w3.org/2000/svg"><g id="Corona_Virus_Symptoms_Headache" data-name="Corona Virus Symptoms Headache"><g id="Filled"><path d="m449.327 512c-13.532-53.072-47.076-92.88-95.18-129.484 0 0-55.374 55.2-115.161 74.216-3.388 15-7.6 33.932-10.69 55.268z" fill="#96e0d7"/><path d="m449.065 512c-8.482-32.214-24.387-59.539-45.738-84.228a195.057 195.057 0 0 1 -35.433 84.228z" fill="#97d0dd"/><path d="m351.535 448a47.6 47.6 0 0 0 -47.535 48v16.4l96-.4v-16.4c-.11-26.508-21.956-47.71-48.465-47.6z" fill="#afefde"/><path d="m342.823 342.661c-68.023-5.623-85.614-67.161-97.123-107.661-3.8-13.36-15.816-18.261-28.677-13.118l-71.666 20.362c-14.807 3.94-27.685 3.609-38.864.443l.216.732 15.3 53.868-15.873 39.266 29.383 8.284 9.839 34.63a28 28 0 0 0 34.587 19.281l57.716-16.4 10.939 38.474s-4.579 13.628-9.612 35.91c59.787-19.012 115.161-74.216 115.161-74.216z" fill="#ffdfc5"/><path d="m106.493 242.682c11.179 3.166 24.057 3.5 38.864-.443l71.666-20.362c12.861-5.143 24.881-.242 28.677 13.118 11.509 40.508 29.1 102.043 97.123 107.666 61.777-150.961 10.863-267.894-48.206-253.414-49.133-59.912-161.217 54.153-220.893 71.109-22.377 6.358-33.724-6.1-33.724-6.1s15.432 73.961 66.493 88.426z" fill="#68676b"/><path d="m343.208 109.663a216.375 216.375 0 0 1 -96.085 130.324c11.585 40.382 30.416 97.277 95.7 102.674 43.032-105.152 31.377-193.778.385-232.998z" fill="#58575b"/><path d="m291.313 249.18c-10.932-38.477-49.409-27.545-40.663 3.237l-28.72 11.583 24 40 25.534-7.6c21.25-6.035 25.887-25.97 19.849-47.22z" fill="#ffdfc5"/><circle cx="341.93" cy="488" fill="#d5f7ed" r="16"/><circle cx="376" cy="496" fill="#d5f7ed" r="8"/><path d="m326.692 128h56.569l48.739-72-63.533-48-19.148 72h-50.911l-33.941 112z" fill="#f27c6d"/><g fill="#8a8a8c"><circle cx="136" cy="176" r="24"/><circle cx="192.569" cy="170.343" r="12"/></g></g><g id="Outline"><path d="m269.277 288.708c-10.173 2.89-5.816 18.285 4.373 15.39 50.861-14.449 24.8-97.572-13.864-86.591-12.586 3.576-22.409 17.467-16.831 37.1 2.89 10.173 18.285 5.816 15.391-4.374-5.92-20.833 17.38-26.635 25.272 1.136 2.629 9.253 6.495 31.419-14.341 37.339z"/><path d="m351.5 440a55.824 55.824 0 0 0 -55.5 56c.5 2.306-2.76 16.4 8 16.4 10.794 0 7.5-14.127 8-16.432a39.811 39.811 0 0 1 39.74-39.968c22.123 0 40.169 17.745 40.26 39.6.5 2.305-2.76 16.4 8 16.4 10.794 0 7.5-14.128 8-16.432-.129-31.027-25.8-55.757-56.5-55.568z"/><path d="m361.122 377.792-9.856-34.686c18.108-45.072 27.674-90.841 27.674-132.536 0-10.576-16-10.592-16 0 0 38.723-8.73 81.3-25.286 123.476-15.928-2.208-29.327-7.944-40.813-17.449-8.145-6.746-18.362 5.572-10.2 12.326 13.924 11.523 30.715 18.6 49.959 21.1l8.535 30.038c-11.519 10.772-51.065 45.918-94.868 64.017 5.784-22.5 7.119-21.6 6.027-25.446-11.527-37.811-9.67-40.456-14.732-43.278-5.134-2.863-4.443-.333-63.8 15.691a20.023 20.023 0 0 1 -24.7-13.773c-10.149-31.5-7.951-38.052-15.364-40.142l-20.798-5.86c11.983-31.071 14.116-31.565 12.805-36.175l-12.005-42.278c24.482 2.15 39.281-6.822 101.51-23.242 10.187-2.894 5.8-18.282-4.374-15.39l-71.594 20.341c-45.642 12.1-74.706-20.326-90.488-65.226 41.611 8.519 108.106-57.25 171.407-81.844 9.857-3.83 4.082-18.748-5.795-14.915-67.401 26.19-145.966 102.327-172.491 76.275-5.207-6.031-15.441-1.251-13.707 7.068.653 3.127 16.193 74.881 67.8 93.1l13.6 47.84c-20.382 53.789-25.2 41.614 15.482 54.491 8.048 21.96 6.169 41.037 25.717 51.934 20.645 11.511 36.165-1.64 77.389-11.026l8.083 28.451c-7.175 22.845-15.106 60.324-18.617 82.046-1.689 10.443 14.1 13.01 15.794 2.552 2.494-15.423 5.47-29.374 8.382-42.379 38.718-13.42 79.27-42.287 108.9-69.845 97.564 76.552 73.602 124.952 94.729 118.614a8 8 0 0 0 5.358-9.965c-13.802-45.922-43.602-85.349-93.663-123.905z"/><path d="m255.656 138.32 24.944-82.32h44.114c9.27 0 8.414-11.853 11.014-18.289 2.719-10.221-12.742-14.349-15.462-4.112l-1.7 6.4c-37.672 1.72-48.565-4.182-51.554 5.68l-26.668 88c-3.064 10.113 12.239 14.784 15.312 4.641z"/><path d="m314.833 197.577 28.754-29.577c55.925-1.239 59.688 2.8 63.855-3.668l13.84-21.491c5.727-8.891-7.716-17.569-13.451-8.663l-11.477 17.822c-57.176.828-57.717-1.86-61.883 2.423l-31.111 32a8 8 0 0 0 11.473 11.154z"/><path d="m466.459 43.108-24 37.292c-5.725 8.9 7.722 17.565 13.455 8.66l24-37.292c5.725-8.898-7.721-17.568-13.455-8.66z"/><path d="m290.751 77.68-33.94 112c-2.425 8 7.574 13.883 13.391 7.9l59.87-61.58c52.131-1.177 55.631 2.664 59.814-3.516l48.739-72a8 8 0 0 0 -1.8-10.867c-65.15-47.638-63.74-51.67-70.966-49.18-7.181 2.476-3.929 5.815-22.69 71.563-38.58 1.731-49.424-4.2-52.418 5.68zm58.568 10.32a8 8 0 0 0 7.732-5.944l16.089-60.5 47.977 36.248-42.1 62.2c-52.966.819-53.906-1.849-58.059 2.423l-39.293 40.413 22.677-74.84z"/><path d="m424.467 112c0 10.577 16 10.592 16 0 0-10.577-16-10.592-16 0z"/><path d="m342.347 8c0-10.577-16-10.592-16 0 0 4.418 16 10.592 16 0z"/></g></g></svg>