<svg height="512" viewBox="0 0 58 58" width="512" xmlns="http://www.w3.org/2000/svg"><g id="Page-1" fill="none" fill-rule="evenodd"><g id="063---Phone-Medical-Advice" fill-rule="nonzero"><path id="Shape" d="m50 24-6 9.45c-.2181402.3411068-.5951062.5474932-1 .5474932s-.7818598-.2063864-1-.5474932l-6-9.45 7-2z" fill="#de4d60"/><path id="Shape" d="m48.113 50.987-6.374 6.374s-10.633 4.961-28.339-12.761-12.761-28.339-12.761-28.339l6.374-6.374c.56114632-.56777873 1.32621567-.88731699 2.1245-.88731699s1.5633537.31953826 2.1245.88731699l7.1 7.085c1.1731656 1.1737871 1.1731656 3.0762129 0 4.25l-4.67 4.66c-.612367.6178514-.761708 1.5577735-.371 2.335 1.8824535 3.4590434 4.3011085 6.5979621 7.166 9.3 2.7020379 2.8648915 5.8409566 5.2835465 9.3 7.166.7772265.390708 1.7171486.241367 2.335-.371l4.66-4.67c1.1737871-1.1731656 3.0762129-1.1731656 4.25 0l7.085 7.1c.5660153.5615265.8840471 1.3260357.8832958 2.1233342-.0007512.7972985-.3202232 1.5612069-.8872958 2.1216658z" fill="#4fb96f"/><path id="Shape" d="m25.516 50.491c-.1939562-.0002335-.3836587-.0568663-.546-.163-3.4097707-2.2863494-6.5760096-4.9164489-9.449-7.849-2.932171-2.8736126-5.56254217-6.0397753-7.85-9.449-.19524565-.2992099-.21603348-.6798536-.0545329-.9985463.16150058-.3186926.48075378-.5270173.83750001-.5465s.69678725.1528364.89203289.4520463c2.2114982 3.2937044 4.754425 6.3523203 7.589 9.128 2.7755417 2.8347247 5.8341736 5.3776648 9.128 7.589.3701977.242023.5374333.6984872.4112102 1.1223848-.1262232.4238976-.515919.7145255-.9582102.7146152z" fill="#fff"/><rect id="Rectangle-path" fill="#ff5364" height="24" rx="3" width="30" x="28"/><path id="Shape" d="m50 10v4c0 .5522847-.4477153 1-1 1h-2c-.5522847 0-1 .4477153-1 1v2c0 .5522847-.4477153 1-1 1h-4c-.5522847 0-1-.4477153-1-1v-2c0-.5522847-.4477153-1-1-1h-2c-.5522847 0-1-.4477153-1-1v-4c0-.55228475.4477153-1 1-1h2c.5522847 0 1-.44771525 1-1v-2c0-.55228475.4477153-1 1-1h4c.5522847 0 1 .44771525 1 1v2c0 .55228475.4477153 1 1 1h2c.5522847 0 1 .44771525 1 1z" fill="#fff"/></g></g></svg>