<svg id="Capa_1" enable-background="new 0 0 512 512" height="512" viewBox="0 0 512 512" width="512" xmlns="http://www.w3.org/2000/svg"><g><g><g><g><ellipse cx="369.616" cy="194.651" fill="#3f5959" rx="38.288" ry="43.377"/></g><g><g><g><g><g><g><path d="m208.06 482.19v-68.425c0-12.068-3.25-23.925-9.441-34.283-21.949-36.72-56.158-56.336-94.588-56.336-38.431 0-72.639 19.616-94.588 56.336-6.193 10.358-9.443 22.214-9.443 34.282v68.425c0 5.69 4.612 10.302 10.302 10.302h187.456c5.689.001 10.302-4.612 10.302-10.301z" fill="#eff5f6"/><path d="m208.059 413.764v68.425c0 5.69-4.612 10.302-10.302 10.302h-17.544v-78.726c0-12.032-3.224-23.869-9.395-34.202-19.254-32.265-47.975-51.344-80.704-55.527 4.564-.587 9.21-.886 13.918-.886 38.457 0 72.69 19.645 94.632 56.413 6.171 10.332 9.395 22.169 9.395 34.201z" fill="#deecf0"/><g><path d="m123.106 284.714v45.237c0 10.533-8.542 19.075-19.075 19.075-10.54 0-19.083-8.542-19.083-19.075v-45.237z" fill="#fdb0a0"/></g><g><g><g><circle cx="160.319" cy="244.747" fill="#fdb0a0" r="20.353"/></g><g><circle cx="47.741" cy="244.747" fill="#fdb0a0" r="20.353"/></g></g></g></g></g><g><path d="m157.484 214.905v38.61c0 29.48-23.574 53.903-53.054 54.124-29.708.214-53.86-23.795-53.86-53.453v-39.28c0-29.523 23.938-53.453 53.46-53.453 14.765 0 28.125 5.984 37.797 15.656 9.673 9.679 15.657 23.038 15.657 37.796z" fill="#ffcec0"/></g></g></g><g><g id="XMLID_1000_"><path d="m128.517 249.812c-4.267 0-7.764-3.459-7.764-7.726 0-4.268 3.422-7.726 7.689-7.726h.074c4.267 0 7.726 3.459 7.726 7.726.001 4.268-3.458 7.726-7.725 7.726z" fill="#c86f5c"/></g></g><g><g id="XMLID_999_"><path d="m79.626 249.812c-4.267 0-7.764-3.459-7.764-7.726 0-4.268 3.423-7.726 7.69-7.726h.074c4.267 0 7.726 3.459 7.726 7.726 0 4.268-3.459 7.726-7.726 7.726z" fill="#c86f5c"/></g></g></g><g><g><g><g><g><path d="m512 482.19v-68.425c0-12.068-3.25-23.925-9.441-34.283-21.949-36.72-56.158-56.336-94.588-56.336-38.431 0-72.639 19.616-94.588 56.336-6.192 10.359-9.441 22.215-9.441 34.283v68.425c0 5.69 4.612 10.302 10.302 10.302h187.456c5.688 0 10.3-4.613 10.3-10.302z" fill="#fcb44d"/><path d="m512 413.764v68.425c0 5.69-4.612 10.302-10.302 10.302h-17.544v-78.726c0-12.032-3.224-23.869-9.395-34.202-19.254-32.265-47.975-51.344-80.704-55.527 4.564-.587 9.21-.886 13.918-.886 38.457 0 72.69 19.645 94.632 56.413 6.171 10.332 9.395 22.169 9.395 34.201z" fill="#fb9927"/><g><g><path d="m354.733 432.045v60.451h-15.453v-60.451c0-4.265 3.461-7.726 7.726-7.726 4.275 0 7.727 3.461 7.727 7.726z" fill="#fb9927"/></g><g><path d="m477.087 432.045v60.451h-15.453v-60.451c0-4.265 3.461-7.726 7.726-7.726 4.266 0 7.727 3.461 7.727 7.726z" fill="#fb9927"/></g></g><g><path d="m427.047 284.714v45.237c0 10.533-8.542 19.075-19.075 19.075-10.54 0-19.083-8.542-19.083-19.075v-45.237z" fill="#fdb0a0"/></g><g><g><g><circle cx="464.259" cy="244.747" fill="#fdb0a0" r="20.353"/></g><g><circle cx="351.681" cy="244.747" fill="#fdb0a0" r="20.353"/></g></g></g></g></g><g><path d="m461.424 214.905v38.61c0 29.48-23.574 53.903-53.054 54.124-29.708.214-53.86-23.795-53.86-53.453v-39.28c0-29.523 23.938-53.453 53.46-53.453 14.765 0 28.125 5.984 37.797 15.656 9.673 9.679 15.657 23.038 15.657 37.796z" fill="#ffcec0"/></g></g></g><g><g id="XMLID_95_"><path d="m432.449 249.812c-4.267 0-7.763-3.459-7.763-7.726 0-4.268 3.422-7.726 7.689-7.726h.074c4.267 0 7.726 3.459 7.726 7.726.001 4.268-3.459 7.726-7.726 7.726z" fill="#c86f5c"/></g></g><g><g id="XMLID_96_"><path d="m383.566 249.812c-4.267 0-7.764-3.459-7.764-7.726 0-4.268 3.423-7.726 7.69-7.726h.074c4.267 0 7.726 3.459 7.726 7.726.001 4.268-3.459 7.726-7.726 7.726z" fill="#c86f5c"/></g></g></g></g><g><g><path d="m506.612 387.408h-197.28c1.154-2.689 2.493-5.316 3.997-7.84 1.566-2.627 3.194-5.161 4.893-7.613h179.488c1.7 2.452 3.327 4.986 4.893 7.613 1.516 2.524 2.855 5.151 4.009 7.84z" fill="#fee7c9"/></g><g><path d="m511.979 412.863h-208.014c.051-5.233.731-10.415 2.009-15.453h203.996c1.278 5.038 1.958 10.22 2.009 15.453z" fill="#fee7c9"/></g></g><g><g><path d="m303.945 437.299h208.055v15.453h-208.055z" fill="#fee7c9"/></g><g><path d="m303.945 462.755h208.055v15.453h-208.055z" fill="#fee7c9"/></g></g><g><g><path d="m506.612 387.408h-27.856c-1.154-2.689-2.493-5.316-3.997-7.85-1.566-2.617-3.194-5.161-4.893-7.603h27.856c1.69 2.452 3.317 4.986 4.883 7.603 1.514 2.534 2.853 5.161 4.007 7.85z" fill="#ffd597"/></g><g><path d="m511.979 412.863h-27.846c-.051-5.233-.731-10.415-1.999-15.453h27.846c1.268 5.038 1.948 10.22 1.999 15.453z" fill="#ffd597"/></g></g><g fill="#ffd597"><g><path d="m339.28 437.299h15.453v15.453h-15.453z"/><path d="m461.634 437.299h15.453v15.453h-15.453z"/><path d="m484.154 437.299h27.846v15.453h-27.846z"/></g><g><path d="m339.28 462.755h15.453v15.453h-15.453z"/><path d="m461.634 462.755h15.453v15.453h-15.453z"/><path d="m484.154 462.755h27.846v15.453h-27.846z"/></g></g><g><g><path d="m50.582 432.045v60.451h-15.453v-60.451c0-4.265 3.461-7.726 7.726-7.726s7.727 3.461 7.727 7.726z" fill="#deecf0"/></g><g><path d="m172.936 432.045v60.451h-15.453v-60.451c0-4.265 3.451-7.726 7.726-7.726 4.266 0 7.727 3.461 7.727 7.726z" fill="#deecf0"/></g></g><path d="m473.315 164.097c-1.511-1.92-1.497-4.656.103-6.503 4.23-4.886 6.025-9.916 4.554-14.374-3.687-11.18-88.443-27.104-108.823 11.061-10.382 19.443 15.527 54.229 45.005 63.127 29.477 8.898 59.147-.662 66.268-21.352 3.654-10.615.654-22.093-7.107-31.959z" fill="#557983"/><path d="m480.425 196.056c-7.129 20.686-36.798 30.246-66.272 21.356-2.029-.608-4.038-1.349-6.027-2.194 22.582 1.185 42.299-8.221 47.934-24.58 3.417-9.931 1.009-20.62-5.673-30.035-2.197-3.095-2.123-7.185.126-10.242 3.166-4.303 4.383-8.644 3.096-12.551-.711-2.163-4.44-4.492-10.147-6.583 18.337 2.194 33.017 7.489 34.511 11.991 1.469 4.458-.324 9.49-4.553 14.375-1.599 1.847-1.613 4.581-.104 6.501 7.76 9.871 10.76 21.35 7.109 31.962z" fill="#3f5959"/><g><g><path d="m180.775 182.684c-4.189-24.67-17.992-36.775-31.855-42.636-6.513-2.754-13.561-4.013-20.632-4.013h-48.516c-7.071 0-14.119 1.26-20.632 4.013-13.863 5.861-27.666 17.966-31.855 42.636-8.347 49.156 61.314 28.655 75.146 24.129 1.043-.341 2.155-.341 3.198 0 13.832 4.526 83.493 25.027 75.146-24.129z" fill="#fde784"/><path d="m136.324 213.951c13.681-2.586 23.488-11.013 20.047-31.266-4.193-24.673-17.997-36.777-31.853-42.639-6.511-2.751-13.567-4.008-20.634-4.008h24.405c7.067 0 14.113 1.257 20.634 4.008 13.856 5.862 27.66 17.966 31.853 42.639 5.316 31.327-21.046 34.356-44.452 31.266z" fill="#fdd330"/></g><path d="m131.091 161.283c0 4.265-3.461 7.726-7.726 7.726-6.397 0-11.61 5.213-11.61 11.61v28.072c-2.565-.731-4.667-1.391-6.13-1.875-1.04-.35-2.153-.35-3.194 0-1.463.484-3.564 1.143-6.13 1.875v-28.072c0-6.397-5.202-11.61-11.61-11.61-4.265 0-7.726-3.462-7.726-7.726 0-4.265 3.461-7.726 7.726-7.726 4.152 0 8.087.948 11.61 2.627v-20.15h15.453v20.14c3.523-1.679 7.458-2.617 11.61-2.617 4.265-.001 7.727 3.461 7.727 7.726z" fill="#f2b92c"/></g><path d="m77.731 408.194v18.124c0 2.845 2.306 5.151 5.151 5.151h42.295c2.845 0 5.151-2.306 5.151-5.151v-18.124c0-2.845-2.306-5.151-5.151-5.151h-42.295c-2.845 0-5.151 2.307-5.151 5.151z" fill="#fb4a59"/></g><g><g><path d="m247.398 159.813c-5.506 0-11.013-2.1-15.213-6.302l-40.374-40.374c-5.136-5.136-5.136-13.464 0-18.601l11.826-11.826c5.136-5.136 13.464-5.136 18.601 0l21.518 21.518c2.012 2.012 5.273 2.012 7.284 0l80.874-80.873c5.136-5.136 13.464-5.136 18.601 0l11.826 11.826c5.136 5.136 5.136 13.464 0 18.601l-99.73 99.729c-4.2 4.201-9.708 6.302-15.213 6.302z" fill="#27e19d"/></g><g><path d="m362.34 53.779-99.727 99.738c-4.207 4.196-9.71 6.294-15.213 6.294s-11.017-2.098-15.213-6.294l-15.334-15.334c4.207 4.196 9.71 6.305 15.213 6.305s11.017-2.109 15.213-6.305l99.727-99.727c4.536-4.537 5.075-11.567 1.582-16.685.681.451 1.329.978 1.933 1.582l11.819 11.83c5.141 5.14 5.141 13.466 0 18.596z" fill="#1ec186"/></g></g></g><g><path d="m325.672 305.921-14.174-14.173c-3.018-3.016-7.909-3.017-10.927.001-3.017 3.017-3.017 7.909.001 10.927l.983.983h-91.109l.983-.983c3.017-3.017 3.018-7.909.001-10.927-3.018-3.018-7.91-3.017-10.927-.001l-14.174 14.173c-1.449 1.449-2.263 3.414-2.263 5.464s.814 4.014 2.263 5.464l14.174 14.174c1.509 1.508 3.486 2.263 5.463 2.263s3.955-.755 5.463-2.263c3.018-3.018 3.018-7.909 0-10.928l-.984-.984h91.111l-.984.984c-3.018 3.018-3.018 7.909 0 10.928 1.509 1.508 3.486 2.263 5.463 2.263s3.955-.755 5.463-2.263l14.174-14.174c1.449-1.45 2.263-3.414 2.263-5.464s-.814-4.015-2.263-5.464z" fill="#fb4a59"/><g fill="#27e19d"><path d="m263.863 277.962c4.267 0 7.726-3.459 7.726-7.726v-22.883l4.999 4.306c2.898 2.497 7.187 2.495 10.086 0l4.999-4.307v22.884c0 4.268 3.459 7.726 7.726 7.726s7.726-3.459 7.726-7.726v-39.737c0-3.021-1.761-5.765-4.507-7.023-2.746-1.262-5.974-.802-8.263 1.169l-12.725 10.962-12.725-10.962c-2.288-1.97-5.517-2.43-8.263-1.169-2.746 1.259-4.507 4.002-4.507 7.023v39.737c.002 4.268 3.461 7.726 7.728 7.726z"/><path d="m207.9 265.218c-1.958 2.293-2.404 5.514-1.142 8.253 1.262 2.738 4.002 4.492 7.017 4.492h23.785c4.267 0 7.726-3.459 7.726-7.726s-3.459-7.726-7.726-7.726h-7.024l10.154-11.888c4.773-5.588 5.189-13.623 1.01-19.539-3.675-5.203-9.668-8.31-16.033-8.31-8.66 0-16.405 5.802-18.833 14.11-1.197 4.096 1.153 8.386 5.248 9.584 4.097 1.196 8.386-1.154 9.584-5.249.515-1.761 2.16-2.991 4.001-2.991 1.372 0 2.615.646 3.41 1.772.066.093.045.375-.137.589z"/></g></g></g></svg>