<svg height="512" viewBox="0 0 512 512" width="512" xmlns="http://www.w3.org/2000/svg"><g id="Corona_Virus_Symptoms_Sore_Throat" data-name="Corona Virus Symptoms Sore Throat"><g id="Filled"><path d="m296 88h-200v102.567l-26 33.433 26 16v36a28 28 0 0 0 28 28h60v48a208.064 208.064 0 0 0 -19.6 23.977c92.836-.957 131.6-31.977 131.6-31.977z" fill="#ffdfc5"/><path d="m296 204.92a224.817 224.817 0 0 1 -112 105.094v41.986a208.064 208.064 0 0 0 -19.6 23.977c92.836-.957 131.6-31.977 131.6-31.977z" fill="#ffd5c7"/><path d="m56.2 30.567s-8 112 77.3 113.433h74.5c13.777-1.433 24 6.567 24 20.456 0 42.111.1 106.111 64 130.111 100.684-128.327 83.666-254.725 22.889-256.941-30.889-71.059-169.882 8.031-231.917 8.031-23.264 0-30.772-15.09-30.772-15.09z" fill="#68676b"/><path d="m296 294.567c100.684-128.327 83.666-254.725 22.889-256.941-.13-.3-.278-.574-.411-.868a227.892 227.892 0 0 1 -87.378 121.013 24.256 24.256 0 0 1 .9 6.685c0 42.111.1 106.111 64 130.111z" fill="#58575b"/><path d="m309.357 240h56.569l41.206-64-56-56-19.147 72h-50.912l-33.941 112z" fill="#f27c6d"/><path d="m296 344s-38.764 31.02-131.6 31.977c-18.814 26.34-44.4 72.379-44.4 128.023v8h232v-8c0-56-8-96-56-160z" fill="#96e0d7"/><path d="m328.621 394.945c-43.847 58.055-132.28 93.391-207.921 93.136-.453 5.211-.7 10.518-.7 15.919v8h232v-8c0-39.639-4.013-71.263-23.379-109.055z" fill="#97d0dd"/><path d="m240 230.567c22.091 0 32-17.908 32-40 0-40-40-40-40-8h-24v48z" fill="#ffdfc5"/><path d="m256 392a48 48 0 0 0 -48 48v72h96v-72a48 48 0 0 0 -48-48z" fill="#afefde"/><circle cx="208" cy="56" fill="#8a8a8c" r="24"/><circle cx="172" cy="100" fill="#8a8a8c" r="12"/><circle cx="248" cy="424" fill="#d5f7ed" r="16"/><circle cx="272" cy="448" fill="#d5f7ed" r="8"/><g fill="#ffa596"><circle cx="360" cy="168" r="16"/><circle cx="344" cy="200" r="8"/></g></g><g id="Outline"><path d="m192.32 29.045c61.088-17.045 104.742-21.563 119.233 11.774a8 8 0 0 0 7.045 4.806c19.09.7 33.263 16.73 38.887 43.991 2.137 10.359 17.81 7.141 15.67-3.232-6.684-32.4-24.83-53.066-49.04-56.329-23.709-44.585-87.4-30-136.095-16.421a8 8 0 1 0 4.3 15.411z"/><path d="m256 384a56.064 56.064 0 0 0 -56 56v64c0 10.576 16 10.592 16 0v-64a40 40 0 0 1 80 0v64c0 10.576 16 10.592 16 0v-64a56.064 56.064 0 0 0 -56-56z"/><path d="m181.054 367.452c15.566-19.008 9.946-1.495 10.946-63.452a8 8 0 0 0 -8-8h-60a20.023 20.023 0 0 1 -20-20c-1.153-33.076 2.752-38.776-3.807-42.813l-18.393-11.322c20.014-26.606 22.205-26.5 22.205-31.3v-43.929c23.407 8.911 37.657 4.023 128 5.364 10.576 0 10.592-16 0-16h-98.436c-47.514-.832-66.358-40.379-69.222-87.47 18.5 9.6 43.786 3.834 66.377-1.95 10.257-2.626 6.286-18.121-3.968-15.5-74.165 18.985-56.326-11.346-72.032-8.507a8.078 8.078 0 0 0 -6.503 7.427c-2.605 36.457 7.886 85.5 39.779 108.133v49.69c-34.334 46.208-35.6 33.15 0 56.647v31.53a36.04 36.04 0 0 0 36 36h52v36.805c-35.837 38.789-64 97.577-64 155.2 0 10.576 16 10.592 16 0 0-51.062 22.826-94.165 40.7-120.091 71-1.436 110.494-20.126 125.384-29.039 76.516 105.108 34.594 157.125 57.916 157.125a8 8 0 0 0 8-8c0-58.365-8.908-99.878-57.6-164.8-10.763-14.356-18.336 22.828-121.346 28.252z"/><path d="m310.289 117.944-9.057 34.056c-37.672 1.72-48.565-4.182-51.555 5.68l-26.668 88c-3.067 10.121 12.241 14.777 15.313 4.64l24.947-82.32h44.114a8 8 0 0 0 7.731-5.944l10.637-40a8 8 0 1 0 -15.462-4.112z"/><path d="m390.5 246.178-11.481 17.822c-57.175.828-57.718-1.861-61.883 2.423l-31.11 32c-7.376 7.588 4.172 18.663 11.472 11.154l28.754-29.577c55.925-1.239 59.689 2.8 63.856-3.668l13.84-21.491c5.726-8.892-7.716-17.567-13.448-8.663z"/><path d="m449.125 155.108-24 37.292c-5.725 8.9 7.722 17.566 13.454 8.66l24-37.292c5.721-8.895-7.723-17.568-13.454-8.66z"/><path d="m343.4 117.944-17.566 66.056h-44.761c-11.272 0-6.954 10.6-41.6 117.68-2.424 8 7.574 13.882 13.392 7.9l59.872-61.58c51.84-1.226 55.764 2.778 59.916-3.669l41.206-64a8 8 0 0 0 -1.07-9.988l-56-56a8.005 8.005 0 0 0 -13.389 3.601zm18.163 114.056c-52.813.818-53.787-1.849-57.941 2.423l-39.292 40.413 22.678-74.836h44.977a8 8 0 0 0 7.731-5.944l15.579-58.58 41.618 41.618z"/><path d="m415.132 216c-10.577 0-10.592 16 0 16s10.592-16 0-16z"/><path d="m328.012 96c10.577 0 10.592-16 0-16s-10.592 16 0 16z"/><path d="m168 32c0-10.577-16-10.592-16 0 0 4.418 16 10.592 16 0z"/><path d="m213.581 291.574c-14.8 22.283 1.5 51.927 27.865 51.927a33.292 33.292 0 0 0 27.871-14.901c5.852-8.811-7.466-17.675-13.328-8.852a17.235 17.235 0 0 1 -11.049 7.408c-15.286 3.062-26.519-13.946-18.031-26.725 5.851-8.815-7.466-17.681-13.328-8.857z"/></g></g></svg>